<svg xmlns="http://www.w3.org/2000/svg" viewBox="0 0 341.03 29.23"><defs><style>.a4711d8b-6ed4-457c-92ca-d9f5591ee4d1{fill:#fff;}.a76a5657-7f36-4f3f-9e4b-67af3ac11062{fill:#e83828;}</style></defs><g id="e641868d-8bcc-4104-8a44-ed2b89d34771" data-name="レイヤー 2"><g id="a037267b-dd7e-4f3d-ab4a-fee1d5c79a47" data-name="レイヤー 1"><path class="a4711d8b-6ed4-457c-92ca-d9f5591ee4d1" d="M247.89,3.59h-5.84L237.58,28.9h-3l4.47-25.31h-5.84L233.71,1h14.64Z"/><path class="a4711d8b-6ed4-457c-92ca-d9f5591ee4d1" d="M253.57,27.1q-1.73-2.13-1-6.34L254.65,9.1a10.49,10.49,0,0,1,3.22-6.4,8.91,8.91,0,0,1,6-2.11,6.37,6.37,0,0,1,5.22,2.11q1.72,2.12,1,6.4L268,20.76a10.35,10.35,0,0,1-3.24,6.34,8.84,8.84,0,0,1-5.94,2.13A6.32,6.32,0,0,1,253.57,27.1Zm9.42-2a7.85,7.85,0,0,0,2-4.32l2-11.42q.55-3.08-.38-4.59a3.41,3.41,0,0,0-3.18-1.52,5.05,5.05,0,0,0-3.83,1.5,8.74,8.74,0,0,0-2,4.61l-2,11.42q-1,5.76,3.72,5.76A5.06,5.06,0,0,0,263,25.12Z"/><path class="a4711d8b-6ed4-457c-92ca-d9f5591ee4d1" d="M285.5,15.34l-4.69,6.07-1.32,7.49h-3L281.41,1h3l-2.75,15.55L293.5,1h3.17l-8.83,11.38,4.89,16.56h-3.29Z"/><path class="a4711d8b-6ed4-457c-92ca-d9f5591ee4d1" d="M309.91,17.28,307.86,28.9h-3L307,17.28,303.62,1h3.29l2.14,12.8L315.71,1H319Z"/><path class="a4711d8b-6ed4-457c-92ca-d9f5591ee4d1" d="M324.34,27.1c-1.15-1.42-1.47-3.53-1-6.34L325.42,9.1a10.49,10.49,0,0,1,3.22-6.4,8.93,8.93,0,0,1,6-2.11,6.37,6.37,0,0,1,5.22,2.11q1.73,2.12,1,6.4l-2.06,11.66a10.35,10.35,0,0,1-3.23,6.34,8.88,8.88,0,0,1-5.95,2.13A6.32,6.32,0,0,1,324.34,27.1Zm9.42-2a7.71,7.71,0,0,0,2-4.32l2-11.42q.54-3.08-.38-4.59a3.42,3.42,0,0,0-3.19-1.52,5,5,0,0,0-3.82,1.5,8.74,8.74,0,0,0-2,4.61l-2,11.42q-1,5.76,3.71,5.76A5.06,5.06,0,0,0,333.76,25.12Z"/><polyline class="a4711d8b-6ed4-457c-92ca-d9f5591ee4d1" points="187.62 6.36 190.63 0.41 195.6 0.41 188.89 12.04"/><polyline class="a4711d8b-6ed4-457c-92ca-d9f5591ee4d1" points="188.3 15.9 191.09 28.35 186.11 28.35 185.02 21.59"/><path class="a4711d8b-6ed4-457c-92ca-d9f5591ee4d1" d="M1.28,26.63c-1.19-1.36-1.55-3.36-1.09-6L2.42,8.06a9.27,9.27,0,0,1,3.32-6,9.93,9.93,0,0,1,6.32-2,6.81,6.81,0,0,1,5.36,2c1.21,1.35,1.58,3.4,1.09,6.15L18.37,9H13.31l.14-.81a3.75,3.75,0,0,0-.31-2.81,2.25,2.25,0,0,0-2-.91A3.1,3.1,0,0,0,8.63,5.59a7,7,0,0,0-1.3,3.28l-2,11.22c-.48,2.73.3,4.09,2.32,4.09A3.25,3.25,0,0,0,10,23.25a5,5,0,0,0,1.29-2.76l.12-.73h5l-.14.77a9.39,9.39,0,0,1-3.35,6.1,9.89,9.89,0,0,1-6.22,2C4.28,28.67,2.46,28,1.28,26.63Z"/><path class="a4711d8b-6ed4-457c-92ca-d9f5591ee4d1" d="M28.52.41h5.06L29.44,23.9H37l-.78,4.45H23.59Z"/><path class="a4711d8b-6ed4-457c-92ca-d9f5591ee4d1" d="M56.54,22.92H49.92l-2.1,5.43H42.55L54.76.41h4.93L62,28.35H56.74Zm-.12-4.45L56,7.13,51.65,18.47Z"/><path class="a4711d8b-6ed4-457c-92ca-d9f5591ee4d1" d="M78.78,17.13H76.36l-2,11.22H69.32L74.25.41H82q4.2,0,5.59,2t.63,6.36a13.86,13.86,0,0,1-1.6,4.66,7,7,0,0,1-3,2.79l2.1,12.15H80.38Zm-1.64-4.45h2.63a2.66,2.66,0,0,0,2.28-1,6.88,6.88,0,0,0,1.09-2.93,5.64,5.64,0,0,0,0-2.92c-.26-.65-.9-1-1.95-1H78.52Z"/><path class="a4711d8b-6ed4-457c-92ca-d9f5591ee4d1" d="M102.81,17.54,99.71,22,98.6,28.35h-5L98.51.41h5l-2.32,13.16L109.57.41h5.06l-7.95,11.5,3.93,16.44h-5.39Z"/><path class="a4711d8b-6ed4-457c-92ca-d9f5591ee4d1" d="M151.35.41l-4.92,27.94h-5.06l-3.3-14.9-2.62,14.9h-5.06L135.32.41h5.05L143.55,16,146.29.41Z"/><path class="a4711d8b-6ed4-457c-92ca-d9f5591ee4d1" d="M215.82,4.9h-4.89l-4.14,23.45h-5L205.91,4.9H201l.79-4.49h14.85Z"/><polygon class="a76a5657-7f36-4f3f-9e4b-67af3ac11062" points="184.83 0.41 179.85 0.41 182.43 11.91 163.14 11.91 162.36 16.36 181.42 16.36 174.51 28.35 179.49 28.35 187.84 13.85 184.83 0.41"/><path class="a4711d8b-6ed4-457c-92ca-d9f5591ee4d1" d="M161,23.9h7.65l-.79,4.45H155.23L160.15.41h12.67L172,4.9h-7.65Z"/></g></g></svg>